<svg xmlns="http://www.w3.org/2000/svg" width="50" height="50" viewBox="0 0 37.5 37.5" version="1.2"><path d="M14.656 17.48c1.281.137 2.547.38 3.809.657.015.383.027.761.027 1.133-.59-.149-1.18-.293-1.777-.403a17.836 17.836 0 00-4.055-.312c-.52.027-1.039.074-1.55.148-1.626.219-3.204.715-4.5 1.684-.266.199-.512.414-.755.652a7.54 7.54 0 00-2.109 6.559c.004.004 0 .011.004.015a7.506 7.506 0 002.129 4.13c2.281 2.265 5.64 2.78 8.418 1.562-3.281 1.996-7.621 1.582-10.461-1.239a8.505 8.505 0 01-.027-12.046c2.78-2.79 7.171-2.942 10.847-2.54M33.875 17.582c-2.824 2.832-7.445 2.973-11.344 2.48.004-.167.008-.335.008-.503l-.012-.594c.133.015.262.031.399.039 1.207.101 2.43.066 3.633-.102 1.628-.222 3.218-.71 4.52-1.691.265-.195.515-.414.753-.652a7.55 7.55 0 00-.023-10.7 7.602 7.602 0 00-8.414-1.566 8.552 8.552 0 0110.457 1.242c3.34 3.324 3.355 8.715.023 12.047"/><path d="M29.031 7.234c-.031-.007-.172-.027-.414-.066a7.23 7.23 0 00-1.172-.059c-.5.016-1.101.102-1.75.274a7.439 7.439 0 00-1.093.418c-.309.148-.614.32-.91.531a3.7 3.7 0 00-.274.184c-.07.062-.145.12-.219.187-.144.11-.285.274-.43.418-.269.313-.539.633-.73 1.024-.414.753-.629 1.668-.703 2.652-.04.492-.04 1.012-.016 1.539.012.238.032.562.051.824.02.281.043.559.063.836.078.91.16 1.86.191 2.84.008.238.016.48.016.723 0 .12 0 .253-.004.378-.028 1.114-.157 2.254-.446 3.344a13.632 13.632 0 01-1.382 3.371c-.598 1.02-1.344 1.95-2.145 2.649-.453.383-.879.707-1.332.957a6.32 6.32 0 01-.527.281 8.78 8.78 0 01-.836.344 6.977 6.977 0 01-2.547.426 6.345 6.345 0 01-1.922-.344 5.561 5.561 0 01-1.105-.543c-.2-.137-.32-.219-.344-.242.027.011.168.054.398.129.262.078.656.164 1.153.218.496.047 1.097.04 1.761-.074a7.096 7.096 0 001.762-.582 6.888 6.888 0 001.371-.855c.344-.262.664-.579.945-.883.649-.703 1.164-1.516 1.614-2.422.445-.906.777-1.906 1.02-2.95.226-1.023.327-2.097.32-3.206v-.063c.003-.379-.012-.762-.024-1.144-.027-.73-.074-1.465-.105-2.215-.016-.297-.024-.59-.04-.887 0-.305-.003-.55 0-.879.004-.597.04-1.199.133-1.797.184-1.187.578-2.367 1.254-3.32.328-.477.73-.883 1.137-1.227.223-.16.418-.324.656-.457.117-.07.23-.132.344-.203.04-.023.078-.043.113-.058.059-.028.114-.051.164-.075l.024-.011c.039-.024.082-.043.12-.063.829-.394 1.657-.55 2.376-.61a6.604 6.604 0 011.941.122c.524.11.91.262 1.164.379.23.098.352.168.38.187M3.707 27.582l.043.031c-.004-.004 0-.011-.004-.015l-.039-.016" fill="#5e17eb"/></svg>